<svg width="18" height="17" viewBox="0 0 18 17" fill="none" xmlns="http://www.w3.org/2000/svg">
<path d="M1.5 7.5C0.947715 7.5 0.5 7.94772 0.5 8.5C0.5 9.05228 0.947715 9.5 1.5 9.5V7.5ZM16.5 9.5C17.0523 9.5 17.5 9.05228 17.5 8.5C17.5 7.94772 17.0523 7.5 16.5 7.5V9.5ZM1.5 9.5L16.5 9.5V7.5L1.5 7.5V9.5Z" fill="black"/>
<path d="M11.8858 3.5359C11.6295 3.0467 11.0251 2.8579 10.5359 3.11422C10.0467 3.37053 9.8579 3.97489 10.1142 4.4641L11.8858 3.5359ZM16.1235 9.42642C16.6352 9.63435 17.2185 9.38814 17.4264 8.8765C17.6344 8.36485 17.3881 7.78151 16.8765 7.57358L16.1235 9.42642ZM10.1142 4.4641C10.7734 5.7222 11.4793 6.66431 12.4617 7.4527C13.4246 8.22542 14.6016 8.80791 16.1235 9.42642L16.8765 7.57358C15.4037 6.97504 14.4448 6.47977 13.7135 5.89287C13.0017 5.32166 12.455 4.62229 11.8858 3.5359L10.1142 4.4641Z" fill="black"/>
<path d="M11.8858 13.4641C11.6295 13.9533 11.0251 14.1421 10.5359 13.8858C10.0467 13.6295 9.8579 13.0251 10.1142 12.5359L11.8858 13.4641ZM16.1235 7.57358C16.6352 7.36565 17.2185 7.61186 17.4264 8.1235C17.6344 8.63515 17.3881 9.21849 16.8765 9.42642L16.1235 7.57358ZM10.1142 12.5359C10.7734 11.2778 11.4793 10.3357 12.4617 9.5473C13.4246 8.77458 14.6016 8.19209 16.1235 7.57358L16.8765 9.42642C15.4037 10.025 14.4448 10.5202 13.7135 11.1071C13.0017 11.6783 12.455 12.3777 11.8858 13.4641L10.1142 12.5359Z" fill="black"/>
</svg>
