<svg width="20" height="20" viewBox="0 0 20 20" fill="none" xmlns="http://www.w3.org/2000/svg">
<path d="M1.94543 1.5H18.0546C18.1999 1.5 18.3421 1.54221 18.4638 1.62149C18.5856 1.70077 18.6817 1.81371 18.7405 1.94658C18.7993 2.07946 18.8182 2.22655 18.7949 2.36998C18.7717 2.51341 18.7073 2.64699 18.6096 2.7545L12.4451 9.53545C12.3196 9.6735 12.25 9.85338 12.25 10.04V15.3486C12.25 15.4721 12.2195 15.5936 12.1613 15.7025C12.103 15.8114 12.0188 15.9042 11.916 15.9726L8.91605 17.9727C8.8031 18.048 8.67183 18.0912 8.53623 18.0977C8.40064 18.1043 8.26582 18.0739 8.14613 18.0099C8.02644 17.9458 7.92638 17.8505 7.85662 17.734C7.78687 17.6176 7.75002 17.4844 7.75002 17.3486V10.04C7.75002 9.85338 7.68048 9.67351 7.55498 9.53545L1.39048 2.7545C1.29274 2.64699 1.22834 2.51341 1.20509 2.36998C1.18185 2.22655 1.20077 2.07946 1.25955 1.94658C1.31833 1.81371 1.41444 1.70077 1.5362 1.62149C1.65797 1.54221 1.80014 1.5 1.94543 1.5V1.5Z" stroke="black" stroke-width="2" stroke-linecap="round" stroke-linejoin="round"/>
</svg>
