<svg width="271" height="22" viewBox="0 0 271 22" fill="none" xmlns="http://www.w3.org/2000/svg">
<path d="M2 2C15.3547 2 15.3547 20 28.7094 20C42.0641 20 42.0641 2 55.4188 2C68.7735 2 68.7735 20 82.0969 20C95.452 20 95.452 2 108.775 2C122.13 2 122.13 20 135.453 20C148.808 20 148.808 2 162.162 2C175.517 2 175.517 20 188.872 20C202.226 20 202.226 2 215.581 2C228.936 2 228.936 20 242.291 20C255.645 20 255.645 2 269 2" stroke="#B5B35C" stroke-width="3" stroke-miterlimit="10" stroke-linecap="round"/>
</svg>
