<svg width="62" height="36" viewBox="0 0 62 36" fill="none" xmlns="http://www.w3.org/2000/svg">
<path d="M2 2C9.9528 2 9.9528 34 17.9056 34C25.8584 34 25.8584 2 33.8112 2C41.764 2 41.764 34 49.6982 34C57.6512 34 57.6512 2 65.5851 2C73.5381 2 73.5381 34 81.472 34C89.425 34 89.425 2 97.3774 2C105.33 2 105.33 34 113.283 34C121.236 34 121.236 2 129.189 2C137.142 2 137.142 34 145.095 34C153.047 34 153.047 2 161 2" stroke="#F2E085" stroke-width="3" stroke-miterlimit="10" stroke-linecap="round"/>
</svg>
